<svg width="300" height="246" viewBox="0 0 300 246" fill="none" xmlns="http://www.w3.org/2000/svg">
<g clip-path="url(#clip0)">
<path d="M250.244 204.154H188.366L157.471 241.546C152.797 247.204 144.08 247.057 139.598 241.245L110.995 204.154H49.7559C22.2769 204.154 0 181.877 0 154.398V49.7559C0 22.2769 22.2769 0 49.7559 0H250.244C277.723 0 300 22.2769 300 49.7559V154.398C300 181.877 277.725 204.154 250.244 204.154Z" fill="#658EC6"/>
<path d="M207.12 119.118L159.492 161.324C155.536 164.829 149.587 164.829 145.633 161.324L98.0061 119.118C50.2675 76.9173 109.714 14.9317 152.562 64.5597C189.787 11.8253 250.477 77.338 207.12 119.118Z" fill="#FC636B"/>
</g>
<defs>
<clipPath id="clip0">
<rect width="300" height="245.698" fill="white"/>
</clipPath>
</defs>
</svg>
